<svg id="Capa_1" enable-background="new 0 0 512 512" height="512" viewBox="0 0 512 512" width="512" xmlns="http://www.w3.org/2000/svg"><g><path d="m471.051 0h-257.316c-11.973 0-21.002 8.598-21.002 19.999v194.957h-141.583c-17.206 0-31.204 13.998-31.204 31.204v234.636.016c0 .041 0 .083.001.124.076 17.141 14.044 31.064 31.203 31.064h323.126c17.165 0 31.136-13.932 31.202-31.083 0-.027 0-.055 0-.082 0-.013 0-.026 0-.039v-139.655h65.571c11.581 0 21.003-9.422 21.003-21.004v-300.138c.002-11.401-9.028-19.999-21.001-19.999zm-419.901 234.956h323.126c4.873 0 9.028 3.128 10.566 7.481l-138.603 130.373c-9.263 8.183-21.164 12.688-33.526 12.688-12.363 0-24.264-4.505-33.527-12.688l-138.603-130.373c1.538-4.353 5.694-7.481 10.567-7.481zm221.838 140.15 112.491-105.81v191.334zm-233.042-105.81 112.5 105.818-112.5 85.518zm334.33 222.704h-323.126c-4.653 0-8.652-2.852-10.343-6.899l126.482-96.146c12.719 10.682 28.772 16.542 45.425 16.542 16.657 0 32.714-5.863 45.434-16.55l126.471 96.153c-1.69 4.048-5.689 6.9-10.343 6.9zm97.778-171.863c0 .554-.45 1.004-1.003 1.004h-65.571v-74.98c0-17.206-13.998-31.204-31.203-31.204h-161.544l.005-194.804c.199-.073.532-.152.997-.152h257.316c.47 0 .804.081 1.003.154z"/><path d="m411.981 88.86h-144.591c-5.522 0-10 4.478-10 10s4.478 10 10 10h144.592c5.522 0 10-4.478 10-10s-4.478-10-10.001-10z"/><path d="m411.981 146.548h-144.591c-5.522 0-10 4.478-10 10s4.478 10 10 10h144.592c5.522 0 10-4.478 10-10s-4.478-10-10.001-10z"/></g></svg>