<?xml version="1.0" encoding="UTF-8"?>
<!DOCTYPE svg PUBLIC "-//W3C//DTD SVG 1.1//EN" "http://www.w3.org/Graphics/SVG/1.1/DTD/svg11.dtd">
<!-- Creator: CorelDRAW 2019 (64-Bit) -->
<svg xmlns="http://www.w3.org/2000/svg" xml:space="preserve" width="2.90832in" height="80px" version="1.1" style="shape-rendering:geometricPrecision; text-rendering:geometricPrecision; image-rendering:optimizeQuality; fill-rule:evenodd; clip-rule:evenodd"
viewBox="0 0 3811.09 3432.98"
 xmlns:xlink="http://www.w3.org/1999/xlink"
 xmlns:xodm="http://www.corel.com/coreldraw/odm/2003">
 <defs>
  <style type="text/css">
   <![CDATA[
    .str0 {stroke:#8E1622;stroke-width:9.1;stroke-miterlimit:22.9256}
    .fil8 {fill:black}
    .fil5 {fill:#1D1D1B}
    .fil6 {fill:#2C7A24}
    .fil2 {fill:#2D7B24}
    .fil4 {fill:#2D7B25}
    .fil3 {fill:#8E1622}
    .fil9 {fill:#8E1622}
    .fil7 {fill:white}
    .fil1 {fill:black;fill-rule:nonzero}
    .fil0 {fill:#8E1622;fill-rule:nonzero}
   ]]>
  </style>
 </defs>
 <g id="Layer_x0020_1">
  <metadata id="CorelCorpID_0Corel-Layer"/>
  <g id="_1585177874640">
   <path class="fil0" d="M17.49 3038.29l0 -189.28 35.63 0 89.17 114.41 87.21 -114.41 35.26 0 0 189.28 -40.82 0 0 -116.92c0,-2.26 0.12,-5.13 0.43,-8.62 0.3,-3.48 0.73,-7.34 1.16,-11.61 -2.38,4.89 -4.46,8.93 -6.23,12.04 -1.77,3.18 -3.42,5.8 -4.82,7.82l-71.08 94.55 -8.8 0 -71.26 -94.92c-2.63,-3.6 -4.89,-6.96 -6.72,-10.14 -1.83,-3.12 -3.36,-6.24 -4.58,-9.17 0.37,3.91 0.67,7.52 0.85,10.69 0.19,3.24 0.25,6.36 0.25,9.35l0 116.92 -35.63 0zm335.95 -144.48c0,-17.24 3.23,-28.97 9.66,-35.33 6.47,-6.29 18.88,-9.47 37.28,-9.47l139.22 0c18.39,0 30.8,3.18 37.28,9.47 6.42,6.36 9.66,18.09 9.66,35.33l0 99.74c0,17.29 -3.24,29.09 -9.66,35.32 -6.48,6.29 -18.89,9.41 -37.28,9.41l-139.22 0c-18.4,0 -30.8,-3.12 -37.28,-9.41 -6.42,-6.23 -9.66,-18.03 -9.66,-35.32l0 -99.74zm44.06 108.85l145.15 0 0 -119.79 -145.15 0 0 119.79zm281.44 35.63l0 -189.28 35.63 0 89.16 114.41 87.21 -114.41 35.26 0 0 189.28 -40.82 0 0 -116.92c0,-2.26 0.12,-5.13 0.43,-8.62 0.3,-3.48 0.73,-7.34 1.16,-11.61 -2.38,4.89 -4.46,8.93 -6.23,12.04 -1.77,3.18 -3.43,5.8 -4.83,7.82l-71.08 94.55 -8.8 0 -71.26 -94.92c-2.63,-3.6 -4.89,-6.96 -6.72,-10.14 -1.83,-3.12 -3.36,-6.24 -4.58,-9.17 0.37,3.91 0.68,7.52 0.86,10.69 0.19,3.24 0.25,6.36 0.25,9.35l0 116.92 -35.63 0zm339.87 0l0 -189.28 44.07 0 0 189.28 -44.07 0zm304.73 -156.15l-123.89 0 0 40.64 117.95 0c18.52,0 31.05,3.18 37.53,9.47 6.54,6.36 9.78,18.09 9.78,35.32l0 25.98c0,17.17 -3.25,28.91 -9.78,35.26 -6.48,6.3 -19.01,9.47 -37.53,9.47l-116.85 0c-18.52,0 -31.05,-3.17 -37.52,-9.47 -6.54,-6.36 -9.78,-18.09 -9.78,-35.26l0 -5.2 38.87 -8.07 0 22.37 133.72 0 0 -43.15 -117.96 0c-18.39,0 -30.8,-3.18 -37.28,-9.48 -6.42,-6.36 -9.65,-18.09 -9.65,-35.32l0 -20.9c0,-17.24 3.23,-28.97 9.65,-35.33 6.48,-6.29 18.89,-9.47 37.28,-9.47l107.39 0c17.78,0 30.07,3.06 36.79,9.11 6.78,6.11 10.15,16.92 10.15,32.45l0 3.92 -38.87 9.17 0 -21.51zm128.77 11.68c0,-17.24 3.24,-28.97 9.66,-35.33 6.47,-6.29 18.88,-9.47 37.28,-9.47l139.22 0c18.4,0 30.8,3.18 37.28,9.47 6.42,6.36 9.66,18.09 9.66,35.33l0 99.74c0,17.29 -3.24,29.09 -9.66,35.32 -6.48,6.29 -18.88,9.41 -37.28,9.41l-139.22 0c-18.4,0 -30.8,-3.12 -37.28,-9.41 -6.42,-6.23 -9.66,-18.03 -9.66,-35.32l0 -99.74zm44.06 108.85l145.16 0 0 -119.79 -145.16 0 0 119.79zm281.81 35.63l0 -189.28 44.07 0 0 153.65 141.97 0 0 35.63 -186.04 0zm292.63 -75.54l82.88 0 -40.83 -77 -42.05 77zm-84.71 75.54l107.08 -189.28 42.41 0 108.54 189.28 -49.44 0 -22.74 -41.31 -119.97 0 -22 41.31 -43.88 0zm447.07 0l0 -155.05 38.13 0 0 58.92 118.02 0 0 -58.92 37.77 0 0 155.05 -37.77 0 0 -65.33 -118.02 0 0 65.33 -38.13 0zm297.27 -29.7l124.98 0 0 -96.87 -124.98 0 0 96.87zm-37.77 -88.8c0,-14.12 2.75,-23.71 8.25,-28.84 5.5,-5.13 16.13,-7.7 32.02,-7.7l119.97 0c16.01,0 26.71,2.57 32.15,7.7 5.44,5.13 8.13,14.73 8.13,28.84l0 81.84c0,14.18 -2.75,23.83 -8.31,28.97 -5.56,5.13 -16.19,7.7 -31.97,7.7l-119.97 0c-15.89,0 -26.52,-2.56 -32.02,-7.7 -5.5,-5.13 -8.25,-14.79 -8.25,-28.97l0 -81.84zm358.26 -8.8l0 127.3 -37.77 0 0 -127.3 -74.87 0 0 -27.75 187.69 0 0 27.75 -75.05 0zm123.89 127.3l0 -155.05 166.35 0 0 27.38 -128.22 0 0 33.8 74.69 0 0 26.71 -74.69 0 0 38.14 130.18 0 0 29.03 -168.31 0zm222.89 0l0 -155.05 38.13 0 0 126.02 121.56 0 0 29.03 -159.69 0zm345.67 -127.3l-106.77 0 0 32.76 101.03 0c15.88,0 26.58,2.51 32.03,7.58 5.49,5.08 8.25,14.73 8.25,28.91l0 21.33c0,14.24 -2.82,23.9 -8.44,29.03 -5.56,5.13 -16.19,7.7 -31.84,7.7l-100.66 0c-16.01,0 -26.83,-2.56 -32.52,-7.7 -5.68,-5.13 -8.49,-14.79 -8.49,-29.03l0 -4.28 33.67 -6.29 0 18.27 114.04 0 0 -35.45 -100.47 0c-15.83,0 -26.58,-2.56 -32.21,-7.76 -5.62,-5.2 -8.43,-14.85 -8.43,-28.97l0 -17.36c0,-13.93 2.81,-23.54 8.43,-28.73 5.62,-5.19 16.38,-7.76 32.21,-7.76l92.1 0c15.65,0 26.34,2.51 32.15,7.46 5.81,4.95 8.68,13.69 8.68,26.21l0 3.73 -32.76 6.97 0 -16.62z"/>
   <path class="fil1" d="M861.36 3263.74l0 -110.48 17.55 0 77.8 65.1c2.64,2.18 4.95,4.21 6.99,6.13 2.04,1.93 3.85,3.89 5.54,5.89 -0.4,-6.21 -0.68,-10.59 -0.83,-13.16 -0.14,-2.57 -0.21,-4.57 -0.21,-5.96l0 -58 23.08 0 0 110.48 -17.55 0 -81.12 -68.24c-1.97,-1.74 -3.67,-3.32 -5.14,-4.71 -1.47,-1.39 -2.82,-2.82 -4.07,-4.28 0.32,3.39 0.6,6.63 0.78,9.67 0.18,3.03 0.25,5.63 0.25,7.88l0 59.68 -23.08 0zm186.23 0l0 -110.48 25.72 0 0 110.48 -25.72 0zm185.85 -90.71l-80.26 0 0 69.92 80.26 0 0 -24.58 -42.02 0 0 -18.8 66.99 0 0 38.03c0,10.13 -1.89,17.01 -5.63,20.65 -3.78,3.67 -11.02,5.49 -21.72,5.49l-76.19 0c-10.74,0 -17.97,-1.82 -21.76,-5.49 -3.74,-3.64 -5.63,-10.52 -5.63,-20.65l0 -58.18c0,-10.06 1.89,-16.91 5.63,-20.62 3.79,-3.67 11.02,-5.54 21.76,-5.54l76.19 0c10.56,0 17.8,1.82 21.62,5.43 3.81,3.64 5.74,10.2 5.74,19.69l0 2.5 -24.96 4.49 0 -12.34zm79.3 90.71l0 -110.48 113.11 0 0 18.8 -87.39 0 0 24.69 51.01 0 0 18.8 -51.01 0 0 27.39 88.43 0 0 20.8 -114.15 0zm244.66 -91.35l-57.82 0 0 30.75 57.82 0c4.46,0 7.49,-0.64 9.14,-1.93 1.64,-1.28 2.46,-3.56 2.46,-6.85l0 -13.31c0,-3.21 -0.83,-5.46 -2.46,-6.74 -1.65,-1.28 -4.68,-1.92 -9.14,-1.92zm-83.11 91.35l0 -110.48 94.49 0c8.77,0 15.13,1.68 19.08,5.07 3.93,3.39 5.89,8.85 5.89,16.34l0 25.97c0,7.46 -1.96,12.88 -5.89,16.27 -3.96,3.42 -10.31,5.13 -19.08,5.13l-14.41 0 50.97 41.7 -36.88 0 -44.52 -41.7 -24.37 0 0 41.7 -25.29 0zm171.61 0l0 -110.48 25.72 0 0 110.48 -25.72 0zm110.48 -44.09l48.37 0 -23.83 -44.95 -24.54 44.95zm-49.44 44.09l62.5 -110.48 24.75 0 63.35 110.48 -28.86 0 -13.27 -24.11 -70.02 0 -12.84 24.11 -25.61 0zm268.99 0l0 -110.48 25.72 0 0 89.68 82.86 0 0 20.8 -108.58 0zm146.21 0l0 -110.48 25.72 0 0 110.48 -25.72 0zm81.94 0l0 -110.48 20.8 0 52.04 66.78 50.9 -66.78 20.58 0 0 110.48 -23.83 0 0 -68.24c0,-1.32 0.07,-2.99 0.25,-5.03 0.18,-2.03 0.42,-4.28 0.68,-6.77 -1.39,2.85 -2.61,5.21 -3.64,7.03 -1.04,1.85 -2,3.39 -2.82,4.56l-41.49 55.18 -5.13 0 -41.59 -55.39c-1.53,-2.1 -2.85,-4.07 -3.93,-5.92 -1.07,-1.82 -1.96,-3.64 -2.67,-5.35 0.21,2.29 0.39,4.39 0.5,6.24 0.1,1.89 0.14,3.71 0.14,5.46l0 68.24 -20.8 0zm198.37 0l0 -110.48 25.72 0 0 110.48 -25.72 0zm133.58 -90.71l0 90.71 -25.72 0 0 -90.71 -50.69 0 0 -19.76 127.31 0 0 19.76 -50.9 0zm82.33 90.71l0 -110.48 113.11 0 0 18.8 -87.39 0 0 24.69 51.01 0 0 18.8 -51.01 0 0 27.39 88.43 0 0 20.8 -114.15 0zm187.27 -20.8l33.25 0c17.69,0 30.21,-2.75 37.59,-8.24 7.38,-5.53 11.1,-14.62 11.1,-27.28 0,-11.31 -3.07,-19.84 -9.21,-25.65 -6.13,-5.81 -15.19,-8.74 -27.18,-8.74l-45.55 0 0 69.92zm-25.72 20.8l0 -110.48 71.09 0c20.26,0 35.85,4.75 46.77,14.2 10.88,9.49 16.34,22.94 16.34,40.34 0,10.34 -2.15,19.62 -6.39,27.86 -4.25,8.28 -10.24,14.77 -17.98,19.51 -4.78,3 -10.77,5.17 -17.91,6.53 -7.14,1.35 -16.3,2.03 -27.43,2.03l-64.49 0z"/>
   <path class="fil1" d="M1973.4 3431.65l0 -75.22 33.35 0c6.71,0 11.8,0.68 15.29,2.03 3.49,1.35 6.27,3.73 8.37,7.15 2.08,3.43 3.12,7.22 3.12,11.35 0,5.34 -1.72,9.83 -5.18,13.49 -3.45,3.66 -8.79,5.99 -16.01,6.99 2.65,1.26 4.64,2.51 6.01,3.75 2.9,2.66 5.65,6.01 8.26,10l13.08 20.48 -12.52 0 -9.95 -15.66c-2.9,-4.5 -5.3,-7.97 -7.2,-10.35 -1.87,-2.4 -3.55,-4.08 -5.04,-5.02 -1.49,-0.96 -3,-1.63 -4.54,-2.01 -1.14,-0.23 -2.98,-0.36 -5.55,-0.36l-11.54 0 0 33.41 -9.95 0zm9.95 -42.02l21.4 0c4.53,0 8.11,-0.47 10.67,-1.42 2.57,-0.94 4.51,-2.45 5.85,-4.52 1.33,-2.06 2,-4.31 2,-6.74 0,-3.55 -1.28,-6.48 -3.87,-8.78 -2.57,-2.29 -6.66,-3.43 -12.24,-3.43l-23.8 0 0 24.89zm119.45 15.64l9.97 2.52c-2.08,8.16 -5.85,14.4 -11.26,18.71 -5.43,4.29 -12.05,6.42 -19.89,6.42 -8.12,0 -14.7,-1.65 -19.77,-4.94 -5.08,-3.31 -8.96,-8.09 -11.6,-14.35 -2.65,-6.27 -3.98,-13 -3.98,-20.18 0,-7.83 1.49,-14.66 4.49,-20.49 2.99,-5.83 7.25,-10.27 12.78,-13.29 5.52,-3.03 11.59,-4.54 18.23,-4.54 7.53,0 13.85,1.91 18.99,5.75 5.13,3.83 8.7,9.21 10.72,16.16l-9.79 2.32c-1.75,-5.48 -4.28,-9.46 -7.6,-11.96 -3.31,-2.51 -7.48,-3.75 -12.52,-3.75 -5.78,0 -10.6,1.38 -14.48,4.15 -3.89,2.79 -6.62,6.5 -8.18,11.17 -1.57,4.66 -2.36,9.48 -2.36,14.43 0,6.41 0.93,11.98 2.78,16.76 1.88,4.77 4.77,8.34 8.71,10.71 3.94,2.36 8.2,3.53 12.78,3.53 5.57,0 10.28,-1.61 14.15,-4.81 3.87,-3.22 6.48,-8.01 7.85,-14.33zm48.6 27.65l4.47 -21.86 -8.67 0 0 -7.63 10.21 0 3.79 -18.64 -14 0 0 -7.64 15.54 0 4.46 -22.02 7.71 0 -4.47 22.02 16.17 0 4.45 -22.02 7.76 0 -4.47 22.02 8.88 0 0 7.64 -10.42 0 -3.85 18.64 14.28 0 0 7.63 -15.82 0 -4.45 21.86 -7.71 0 4.41 -21.86 -16.11 0 -4.46 21.86 -7.69 0zm13.7 -29.49l16.12 0 3.85 -18.64 -16.16 0 -3.8 18.64zm48.95 -15.77l0 -10.51 10.52 0 0 10.51 -10.52 0zm0 43.98l0 -10.53 10.52 0 0 10.53 -10.52 0zm58.85 0l-9.23 0 0 -58.85c-2.23,2.12 -5.13,4.24 -8.74,6.36 -3.63,2.12 -6.87,3.71 -9.74,4.77l0 -8.91c5.16,-2.44 9.69,-5.38 13.56,-8.83 3.85,-3.47 6.6,-6.82 8.21,-10.07l5.94 0 0 75.54zm23.66 -19.71l9.7 -0.83c0.72,4.74 2.38,8.27 4.99,10.65 2.63,2.38 5.78,3.57 9.47,3.57 4.45,0 8.21,-1.68 11.28,-5.02 3.09,-3.36 4.63,-7.81 4.63,-13.35 0,-5.27 -1.47,-9.43 -4.43,-12.47 -2.96,-3.05 -6.83,-4.57 -11.63,-4.57 -2.98,0 -5.66,0.68 -8.06,2.03 -2.4,1.35 -4.27,3.1 -5.64,5.25l-8.67 -1.12 7.29 -38.64 37.41 0 0 8.83 -30.02 0 -4.06 20.22c4.51,-3.16 9.26,-4.73 14.22,-4.73 6.57,0 12.1,2.28 16.62,6.83 4.52,4.55 6.78,10.4 6.78,17.55 0,6.82 -2,12.7 -5.95,17.66 -4.83,6.07 -11.42,9.12 -19.76,9.12 -6.85,0 -12.43,-1.9 -16.76,-5.74 -4.32,-3.83 -6.79,-8.91 -7.41,-15.24zm58.45 -17.39c0,-8.9 0.91,-16.06 2.75,-21.47 1.82,-5.43 4.55,-9.62 8.16,-12.56 3.61,-2.94 8.15,-4.41 13.61,-4.41 4.04,0 7.58,0.82 10.63,2.45 3.05,1.61 5.55,3.96 7.55,7.03 1.98,3.06 3.54,6.79 4.66,11.19 1.14,4.4 1.7,10.32 1.7,17.78 0,8.83 -0.91,15.94 -2.71,21.37 -1.82,5.43 -4.53,9.62 -8.14,12.58 -3.61,2.96 -8.17,4.43 -13.68,4.43 -7.25,0 -12.94,-2.59 -17.08,-7.79 -4.96,-6.25 -7.44,-16.46 -7.44,-30.58zm9.49 0c0,12.35 1.45,20.56 4.34,24.66 2.89,4.08 6.44,6.13 10.68,6.13 4.26,0 7.81,-2.06 10.7,-6.17 2.89,-4.1 4.34,-12.31 4.34,-24.62 0,-12.38 -1.45,-20.62 -4.34,-24.68 -2.89,-4.08 -6.48,-6.11 -10.79,-6.11 -4.26,0 -7.64,1.81 -10.18,5.4 -3.17,4.57 -4.76,13.05 -4.76,25.39zm78.56 37.1l0 -18.01 -32.63 0 0 -8.47 34.33 -48.74 7.55 0 0 48.74 10.16 0 0 8.47 -10.16 0 0 18.01 -9.25 0zm0 -26.48l0 -33.91 -23.55 33.91 23.55 0zm76.76 -30.32l-9.17 0.72c-0.83,-3.63 -1.98,-6.27 -3.49,-7.9 -2.51,-2.65 -5.59,-3.96 -9.25,-3.96 -2.94,0 -5.52,0.83 -7.74,2.48 -2.91,2.12 -5.21,5.22 -6.88,9.28 -1.67,4.06 -2.54,9.86 -2.62,17.39 2.23,-3.38 4.94,-5.9 8.17,-7.55 3.2,-1.63 6.58,-2.46 10.1,-2.46 6.17,0 11.4,2.26 15.73,6.79 4.33,4.54 6.5,10.39 6.5,17.57 0,4.73 -1.04,9.11 -3.06,13.18 -2.03,4.04 -4.83,7.16 -8.39,9.32 -3.55,2.15 -7.58,3.22 -12.1,3.22 -7.7,0 -13.98,-2.82 -18.83,-8.49 -4.87,-5.66 -7.28,-14.99 -7.28,-27.99 0,-14.53 2.68,-25.09 8.05,-31.7 4.68,-5.74 10.98,-8.63 18.93,-8.63 5.91,0 10.76,1.66 14.54,4.99 3.79,3.31 6.05,7.9 6.79,13.75zm-37.71 32.42c0,3.19 0.68,6.24 2.03,9.14 1.35,2.9 3.24,5.11 5.65,6.64 2.44,1.52 4.99,2.29 7.66,2.29 3.91,0 7.25,-1.57 10.06,-4.73 2.8,-3.16 4.2,-7.43 4.2,-12.82 0,-5.2 -1.38,-9.3 -4.15,-12.3 -2.77,-2.99 -6.25,-4.48 -10.46,-4.48 -4.18,0 -7.72,1.49 -10.63,4.48 -2.9,3 -4.36,6.92 -4.36,11.77zm48.29 4.52l9.23 -1.23c1.07,5.24 2.87,9 5.41,11.32 2.56,2.31 5.66,3.46 9.32,3.46 4.34,0 8.02,-1.5 11.02,-4.52 2.98,-3.01 4.48,-6.74 4.48,-11.19 0,-4.24 -1.39,-7.74 -4.15,-10.49 -2.79,-2.75 -6.3,-4.13 -10.58,-4.13 -1.75,0 -3.92,0.35 -6.51,1.03l1.03 -8.1c0.61,0.07 1.11,0.1 1.49,0.1 3.93,0 7.47,-1.03 10.61,-3.09 3.16,-2.04 4.74,-5.22 4.74,-9.49 0,-3.38 -1.16,-6.2 -3.45,-8.41 -2.3,-2.22 -5.26,-3.35 -8.88,-3.35 -3.59,0 -6.59,1.14 -8.97,3.38 -2.4,2.26 -3.94,5.66 -4.62,10.17l-9.23 -1.65c1.12,-6.2 3.69,-11 7.69,-14.4 4.01,-3.39 8.98,-5.11 14.94,-5.11 4.1,0 7.88,0.89 11.33,2.64 3.45,1.77 6.1,4.17 7.93,7.21 1.82,3.05 2.75,6.27 2.75,9.7 0,3.25 -0.87,6.2 -2.63,8.88 -1.75,2.66 -4.33,4.78 -7.74,6.36 4.45,1.02 7.9,3.15 10.36,6.39 2.46,3.22 3.68,7.27 3.68,12.12 0,6.57 -2.38,12.14 -7.18,16.71 -4.78,4.58 -10.84,6.85 -18.16,6.85 -6.6,0 -12.09,-1.96 -16.45,-5.91 -4.36,-3.92 -6.85,-9.02 -7.46,-15.29zm59 -45.51l0 -8.88 48.69 0 0 7.18c-4.78,5.1 -9.53,11.88 -14.24,20.32 -4.69,8.45 -8.34,17.15 -10.89,26.06 -1.86,6.31 -3.03,13.19 -3.54,20.69l-9.49 0c0.1,-5.92 1.26,-13.07 3.48,-21.46 2.22,-8.37 5.41,-16.46 9.56,-24.24 4.17,-7.77 8.58,-14.35 13.28,-19.67l-36.86 0z"/>
  </g>
  <polygon class="fil2" points="111.8,2503.62 13.97,2544.72 -0,215.66 1029.67,215.66 1071.59,1182.44 949.11,1044.66 921.68,325.29 120.94,325.29 "/>
  <polygon class="fil3" points="835.06,2195.98 837.74,2361.31 1008.41,2357.81 "/>
  <polygon class="fil3" points="1397.61,2300.27 1791.36,1501.9 1835.45,1501.9 1820.34,2300.27 1750.26,2300.27 1747.28,1834.4 1496.06,2300.27 "/>
  <polygon class="fil3" points="1880.96,1332.26 1948.47,1332.26 1960.29,2315.06 1880.96,2315.06 "/>
  <polygon class="fil4" points="2802.54,1183.27 2820.83,209.71 3795.42,209.71 3795.42,2549.86 3682.29,2511.33 3688.87,311.63 2927.99,311.63 2904.06,1120.49 "/>
  <path class="fil3 str0" d="M787.39 2338.19c0,0 -408.54,-266.12 -677.03,-292.95 0,0 771.46,-130.19 106.55,-760.36 0,0 806.8,424.68 657.61,-376.79 0,0 739.81,1096.05 358.6,-178.07 0,0 582.8,684.94 694.8,-678.15 0,0 134.5,1431.62 732.2,630.17 0,0 -477.58,1097.08 272.91,359.62 0,0 33.39,619.38 653.5,236.33 0,0 -676.1,811.73 201.7,589.07 -545.82,383.46 -768.99,448.5 -801.46,471.11l0 -131.93 588.87 -263.86c0,0 -560.3,78.81 -119.49,-541.09 0,0 -485.7,186.7 -558.45,-280.82 0,0 -599.56,611.26 -369.91,-226.05 0,0 -412.75,366.52 -599.56,-547.97 0,0 -123.3,907.6 -608.8,513.76 0,0 310,1030.89 -392.31,188.34 0,0 -7.4,570.78 -552.8,342.56 0,0 354.8,524.03 -71,633.57l484.05 181.56 0 131.93 0 0z"/>
  <polygon class="fil5" points="2020.39,1332.26 2020.39,2315.06 2169.39,2315.06 2169.39,1938.49 2287.55,1938.49 2287.55,2313.53 2434.79,2313.53 2434.79,1419.6 2288.89,1380.24 2288.89,1726.1 2153.98,1726.1 2153.98,1357.53 "/>
  <rect class="fil6" x="2020.39" y="1782.41" width="414.4" height="97.21"/>
  <path class="fil6" d="M2927.99 2344.86l-13.66 -1.43 -42.85 -4.52 -61.66 -6.47 0 -21.88 -7.6 -322.94 -8.83 -374.12 16.75 12.74c38.74,29.59 77.16,59.08 115.38,86.1l1.65 1.23 0.82 631.31 0.01 -0.01z"/>
  <path class="fil7" d="M941.51 1485.56l0 0c-0.6,-0.07 -1.22,-0.1 -1.82,-0.1 -2.96,0 -5.86,0.74 -8.46,2.15 -3.84,1.35 -7.36,3.52 -10.27,6.37 -3.75,3.11 -6.94,6.85 -9.46,11 -3.18,4.09 -5.69,8.67 -7.4,13.56l-3.69 8.95c-0.6,2.63 -0.92,5.35 -0.92,8.06 0,2.71 0.31,5.43 0.92,8.06l2.78 6.06c2.35,3.46 6.11,5.72 10.27,6.16l0 0c0.6,0.06 1.22,0.09 1.83,0.09 2.95,0 5.86,-0.74 8.45,-2.15 3.84,-1.35 7.36,-3.53 10.28,-6.38 3.74,-3.11 6.94,-6.83 9.45,-10.99 3.18,-4.1 5.68,-8.68 7.4,-13.56l2.56 -9.14c0.61,-2.64 0.92,-5.36 0.92,-8.07 0,-2.71 -0.31,-5.43 -0.92,-8.06l-2.78 -6.06c-2.36,-3.46 -6.11,-5.72 -10.28,-6.16l1.13 0.21 0.02 0.01z"/>
  <path class="fil7" d="M941.51 1485.56l0 0c-0.6,-0.07 -1.22,-0.1 -1.82,-0.1 -2.96,0 -5.86,0.74 -8.46,2.15 -3.84,1.35 -7.36,3.52 -10.27,6.37 -3.75,3.11 -6.94,6.85 -9.46,11 -3.18,4.09 -5.69,8.67 -7.4,13.56l-3.69 8.95c-0.6,2.63 -0.92,5.35 -0.92,8.06 0,2.71 0.31,5.43 0.92,8.06l2.78 6.06c2.35,3.46 6.11,5.72 10.27,6.16l0 0c0.6,0.06 1.22,0.09 1.83,0.09 2.95,0 5.86,-0.74 8.45,-2.15 3.84,-1.35 7.36,-3.53 10.28,-6.38 3.74,-3.11 6.94,-6.83 9.45,-10.99 3.18,-4.1 5.68,-8.68 7.4,-13.56l2.56 -9.14c0.61,-2.64 0.92,-5.36 0.92,-8.07 0,-2.71 -0.31,-5.43 -0.92,-8.06l-2.78 -6.06c-2.36,-3.46 -6.11,-5.72 -10.28,-6.16l1.13 0.21 0.02 0.01z"/>
  <path class="fil3" d="M1355.08 2072.68l-334.21 -575.89c-3.55,3.89 -7.67,7.31 -12.27,10.13 -11.96,7.99 -23.8,15.94 -35.95,23.31l392.7 724 437.82 -921.98 -76.45 0 -371.64 740.42 0 0.01z"/>
  <path class="fil3" d="M2516.99 1473.7l0 840.96 124.23 6.26 -0.92 -392.72 164.7 401.96 4.84 0.61 0 -20.24 -7.6 -322.94 -0.03 -1.07 -112.31 -423.51c-54.08,-24.28 -123.9,-58.98 -172.9,-89.33l0 0.01z"/>
  <path class="fil8" d="M2.93 2617c1298.4,-373.76 2557.31,-297.05 3788.24,-6.07l-39.94 138.42c-1223.16,-304.07 -2555.05,-351.82 -3705.36,-7.47l-42.94 -124.89z"/>
  <path class="fil9" d="M818.25 1625.67l16.81 492.64 198.92 162.14 -7.91 -405.77 230.58 425.6 75.31 0 -402.49 -749.28c-0.78,0.49 -1.57,0.94 -2.39,1.36 -2.87,2.73 -6.05,5.17 -9.5,7.28 -33.01,22.08 -65.91,44.46 -99.33,66.03z"/>
 </g>
</svg>
