<?xml version="1.0" encoding="UTF-8"?>
<!DOCTYPE svg PUBLIC "-//W3C//DTD SVG 1.1//EN" "http://www.w3.org/Graphics/SVG/1.1/DTD/svg11.dtd">
<!-- Creator: CorelDRAW 2019 (64-Bit) -->
<svg xmlns="http://www.w3.org/2000/svg" xml:space="preserve" width="0.779563in" height="0.716209in" version="1.1" style="shape-rendering:geometricPrecision; text-rendering:geometricPrecision; image-rendering:optimizeQuality; fill-rule:evenodd; clip-rule:evenodd"
viewBox="0 0 614.05 564.14"
 xmlns:xlink="http://www.w3.org/1999/xlink"
 xmlns:xodm="http://www.corel.com/coreldraw/odm/2003">
 <defs>
  <style type="text/css">
   <![CDATA[
    .str0 {stroke:#8E1622;stroke-width:5.47;stroke-miterlimit:22.9256}
    .fil8 {fill:black}
    .fil5 {fill:#1D1D1B}
    .fil6 {fill:#2C7A24}
    .fil2 {fill:#2D7B24}
    .fil4 {fill:#2D7B25}
    .fil3 {fill:#8E1622}
    .fil7 {fill:white}
    .fil1 {fill:black;fill-rule:nonzero}
    .fil0 {fill:#8E1622;fill-rule:nonzero}
   ]]>
  </style>
 </defs>
 <g id="Layer_x0020_1">
  <metadata id="CorelCorpID_0Corel-Layer"/>
  <g id="_2912681339632">
   <g>
    <path class="fil0" d="M5.93 501.93l0 -29.84 5.62 0 14.06 18.03 13.75 -18.03 5.56 0 0 29.84 -6.43 0 0 -18.43c0,-0.36 0.02,-0.81 0.07,-1.36 0.05,-0.55 0.11,-1.16 0.18,-1.83 -0.38,0.77 -0.7,1.4 -0.98,1.9 -0.28,0.5 -0.54,0.91 -0.76,1.23l-11.2 14.9 -1.39 0 -11.23 -14.96c-0.42,-0.57 -0.77,-1.1 -1.06,-1.6 -0.29,-0.49 -0.53,-0.98 -0.72,-1.45 0.06,0.62 0.11,1.18 0.14,1.69 0.03,0.51 0.04,1 0.04,1.47l0 18.43 -5.62 0zm52.96 -22.77c0,-2.72 0.51,-4.56 1.52,-5.57 1.02,-0.99 2.98,-1.49 5.88,-1.49l21.94 0c2.9,0 4.86,0.5 5.88,1.49 1.01,1 1.52,2.85 1.52,5.57l0 15.72c0,2.73 -0.51,4.59 -1.52,5.57 -1.02,0.99 -2.98,1.48 -5.88,1.48l-21.94 0c-2.9,0 -4.86,-0.49 -5.88,-1.48 -1.01,-0.98 -1.52,-2.84 -1.52,-5.57l0 -15.72zm6.95 17.16l22.88 0 0 -18.88 -22.88 0 0 18.88zm44.36 5.62l0 -29.84 5.62 0 14.05 18.03 13.75 -18.03 5.56 0 0 29.84 -6.43 0 0 -18.43c0,-0.36 0.02,-0.81 0.07,-1.36 0.05,-0.55 0.12,-1.16 0.18,-1.83 -0.38,0.77 -0.7,1.4 -0.98,1.9 -0.28,0.5 -0.54,0.91 -0.76,1.23l-11.2 14.9 -1.39 0 -11.24 -14.96c-0.41,-0.57 -0.77,-1.1 -1.06,-1.6 -0.29,-0.49 -0.53,-0.98 -0.72,-1.45 0.06,0.62 0.11,1.18 0.13,1.69 0.03,0.51 0.04,1 0.04,1.47l0 18.43 -5.62 0zm53.57 0l0 -29.84 6.95 0 0 29.84 -6.95 0zm48.04 -24.61l-19.53 0 0 6.41 18.59 0c2.92,0 4.89,0.5 5.92,1.49 1.03,1 1.54,2.85 1.54,5.57l0 4.09c0,2.71 -0.51,4.56 -1.54,5.56 -1.02,0.99 -3,1.49 -5.92,1.49l-18.42 0c-2.92,0 -4.89,-0.5 -5.91,-1.49 -1.03,-1 -1.54,-2.85 -1.54,-5.56l0 -0.82 6.13 -1.27 0 3.53 21.08 0 0 -6.8 -18.59 0c-2.9,0 -4.86,-0.5 -5.88,-1.49 -1.01,-1 -1.52,-2.85 -1.52,-5.57l0 -3.29c0,-2.72 0.51,-4.56 1.52,-5.57 1.02,-0.99 2.98,-1.49 5.88,-1.49l16.93 0c2.8,0 4.74,0.48 5.8,1.44 1.07,0.96 1.6,2.67 1.6,5.11l0 0.62 -6.12 1.45 0 -3.39zm20.3 1.84c0,-2.72 0.51,-4.56 1.52,-5.57 1.02,-0.99 2.98,-1.49 5.88,-1.49l21.95 0c2.9,0 4.85,0.5 5.88,1.49 1.01,1 1.52,2.85 1.52,5.57l0 15.72c0,2.73 -0.51,4.59 -1.52,5.57 -1.02,0.99 -2.98,1.48 -5.88,1.48l-21.95 0c-2.9,0 -4.86,-0.49 -5.88,-1.48 -1.01,-0.98 -1.52,-2.84 -1.52,-5.57l0 -15.72zm6.95 17.16l22.88 0 0 -18.88 -22.88 0 0 18.88zm44.42 5.62l0 -29.84 6.95 0 0 24.22 22.38 0 0 5.62 -29.33 0zm46.13 -11.91l13.06 0 -6.43 -12.14 -6.63 12.14zm-13.35 11.91l16.88 -29.84 6.69 0 17.11 29.84 -7.79 0 -3.58 -6.51 -18.91 0 -3.47 6.51 -6.92 0zm70.47 0l0 -24.44 6.01 0 0 9.29 18.6 0 0 -9.29 5.95 0 0 24.44 -5.95 0 0 -10.3 -18.6 0 0 10.3 -6.01 0zm46.86 -4.68l19.7 0 0 -15.27 -19.7 0 0 15.27zm-5.95 -14c0,-2.22 0.43,-3.74 1.3,-4.55 0.87,-0.81 2.54,-1.22 5.05,-1.22l18.91 0c2.52,0 4.21,0.41 5.07,1.22 0.86,0.81 1.28,2.32 1.28,4.55l0 12.9c0,2.24 -0.43,3.76 -1.31,4.56 -0.88,0.81 -2.56,1.22 -5.04,1.22l-18.91 0c-2.51,0 -4.18,-0.41 -5.05,-1.22 -0.87,-0.81 -1.3,-2.33 -1.3,-4.56l0 -12.9zm56.47 -1.39l0 20.07 -5.95 0 0 -20.07 -11.8 0 0 -4.38 29.58 0 0 4.38 -11.83 0zm19.53 20.07l0 -24.44 26.22 0 0 4.32 -20.21 0 0 5.33 11.77 0 0 4.21 -11.77 0 0 6.01 20.52 0 0 4.58 -26.53 0zm35.14 0l0 -24.44 6.01 0 0 19.87 19.16 0 0 4.58 -25.17 0zm54.49 -20.07l-16.83 0 0 5.16 15.93 0c2.5,0 4.19,0.39 5.05,1.19 0.87,0.8 1.3,2.32 1.3,4.56l0 3.36c0,2.25 -0.44,3.76 -1.33,4.57 -0.87,0.81 -2.55,1.22 -5.02,1.22l-15.87 0c-2.52,0 -4.23,-0.41 -5.13,-1.22 -0.9,-0.81 -1.34,-2.33 -1.34,-4.57l0 -0.68 5.31 -0.99 0 2.88 17.98 0 0 -5.59 -15.84 0c-2.5,0 -4.19,-0.4 -5.08,-1.22 -0.89,-0.82 -1.33,-2.34 -1.33,-4.57l0 -2.74c0,-2.2 0.44,-3.71 1.33,-4.53 0.89,-0.82 2.58,-1.22 5.08,-1.22l14.52 0c2.47,0 4.15,0.4 5.07,1.18 0.91,0.78 1.37,2.16 1.37,4.13l0 0.59 -5.16 1.1 0 -2.62z"/>
    <path class="fil1" d="M138.95 537.47l0 -17.41 2.77 0 12.26 10.26c0.42,0.34 0.78,0.66 1.1,0.97 0.32,0.3 0.61,0.61 0.87,0.93 -0.06,-0.98 -0.11,-1.67 -0.13,-2.07 -0.02,-0.4 -0.03,-0.72 -0.03,-0.94l0 -9.14 3.64 0 0 17.41 -2.77 0 -12.79 -10.75c-0.31,-0.28 -0.58,-0.52 -0.81,-0.74 -0.23,-0.22 -0.44,-0.44 -0.64,-0.67 0.05,0.53 0.1,1.05 0.12,1.52 0.03,0.48 0.04,0.89 0.04,1.24l0 9.41 -3.64 0zm29.36 0l0 -17.41 4.06 0 0 17.41 -4.06 0zm29.3 -14.3l-12.65 0 0 11.02 12.65 0 0 -3.87 -6.62 0 0 -2.96 10.56 0 0 5.99c0,1.6 -0.3,2.68 -0.89,3.26 -0.6,0.58 -1.74,0.87 -3.43,0.87l-12.01 0c-1.69,0 -2.83,-0.29 -3.43,-0.87 -0.59,-0.57 -0.89,-1.66 -0.89,-3.26l0 -9.17c0,-1.58 0.3,-2.66 0.89,-3.25 0.6,-0.58 1.74,-0.87 3.43,-0.87l12.01 0c1.67,0 2.81,0.29 3.41,0.86 0.6,0.57 0.91,1.61 0.91,3.1l0 0.39 -3.94 0.71 0 -1.95zm12.5 14.3l0 -17.41 17.83 0 0 2.96 -13.78 0 0 3.89 8.04 0 0 2.96 -8.04 0 0 4.32 13.94 0 0 3.28 -18 0zm38.57 -14.4l-9.11 0 0 4.85 9.11 0c0.7,0 1.18,-0.1 1.44,-0.3 0.26,-0.2 0.39,-0.56 0.39,-1.08l0 -2.1c0,-0.51 -0.13,-0.86 -0.39,-1.06 -0.26,-0.2 -0.73,-0.3 -1.44,-0.3zm-13.1 14.4l0 -17.41 14.89 0c1.38,0 2.38,0.26 3.01,0.8 0.62,0.54 0.93,1.4 0.93,2.58l0 4.09c0,1.18 -0.31,2.03 -0.93,2.56 -0.62,0.54 -1.62,0.81 -3.01,0.81l-2.27 0 8.03 6.57 -5.81 0 -7.02 -6.57 -3.84 0 0 6.57 -3.99 0zm27.05 0l0 -17.41 4.06 0 0 17.41 -4.06 0zm17.42 -6.95l7.62 0 -3.76 -7.08 -3.87 7.08zm-7.79 6.95l9.85 -17.41 3.9 0 9.99 17.41 -4.55 0 -2.09 -3.8 -11.04 0 -2.02 3.8 -4.04 0zm42.4 0l0 -17.41 4.06 0 0 14.13 13.06 0 0 3.28 -17.12 0zm23.05 0l0 -17.41 4.05 0 0 17.41 -4.05 0zm12.92 0l0 -17.41 3.27 0 8.21 10.53 8.02 -10.53 3.25 0 0 17.41 -3.76 0 0 -10.75c0,-0.21 0.01,-0.47 0.04,-0.79 0.03,-0.32 0.07,-0.68 0.11,-1.07 -0.22,0.45 -0.41,0.82 -0.57,1.11 -0.16,0.29 -0.32,0.53 -0.45,0.72l-6.54 8.7 -0.81 0 -6.56 -8.73c-0.24,-0.33 -0.45,-0.64 -0.62,-0.93 -0.17,-0.29 -0.31,-0.57 -0.42,-0.84 0.03,0.36 0.06,0.69 0.08,0.98 0.02,0.3 0.02,0.59 0.02,0.86l0 10.75 -3.27 0zm31.27 0l0 -17.41 4.06 0 0 17.41 -4.06 0zm21.06 -14.3l0 14.3 -4.06 0 0 -14.3 -7.99 0 0 -3.11 20.07 0 0 3.11 -8.02 0zm12.98 14.3l0 -17.41 17.83 0 0 2.96 -13.78 0 0 3.89 8.04 0 0 2.96 -8.04 0 0 4.32 13.94 0 0 3.28 -18 0zm29.52 -3.28l5.24 0c2.79,0 4.76,-0.43 5.93,-1.3 1.16,-0.87 1.75,-2.3 1.75,-4.3 0,-1.78 -0.48,-3.13 -1.45,-4.04 -0.96,-0.92 -2.39,-1.38 -4.28,-1.38l-7.18 0 0 11.02zm-4.06 3.28l0 -17.41 11.21 0c3.19,0 5.65,0.75 7.37,2.24 1.71,1.49 2.57,3.62 2.57,6.36 0,1.63 -0.33,3.09 -1,4.39 -0.67,1.31 -1.62,2.33 -2.83,3.08 -0.75,0.47 -1.7,0.82 -2.82,1.03 -1.13,0.21 -2.57,0.32 -4.32,0.32l-10.17 0z"/>
    <path class="fil1" d="M314.24 563.93l0 -11.86 5.26 0c1.06,0 1.86,0.11 2.41,0.32 0.55,0.21 0.99,0.59 1.32,1.13 0.33,0.54 0.49,1.14 0.49,1.79 0,0.84 -0.27,1.55 -0.82,2.12 -0.55,0.58 -1.39,0.95 -2.52,1.1 0.42,0.2 0.73,0.39 0.95,0.59 0.46,0.42 0.89,0.95 1.3,1.58l2.07 3.23 -1.98 0 -1.57 -2.47c-0.46,-0.71 -0.83,-1.26 -1.14,-1.63 -0.29,-0.38 -0.56,-0.64 -0.79,-0.79 -0.24,-0.15 -0.47,-0.26 -0.72,-0.32 -0.18,-0.03 -0.47,-0.06 -0.87,-0.06l-1.82 0 0 5.27 -1.57 0zm1.57 -6.62l3.37 0c0.72,0 1.28,-0.08 1.68,-0.23 0.41,-0.15 0.71,-0.38 0.92,-0.71 0.21,-0.33 0.31,-0.68 0.31,-1.06 0,-0.56 -0.2,-1.02 -0.61,-1.38 -0.41,-0.36 -1.05,-0.54 -1.93,-0.54l-3.75 0 0 3.93zm18.83 2.47l1.57 0.4c-0.33,1.29 -0.92,2.27 -1.78,2.95 -0.86,0.68 -1.9,1.01 -3.14,1.01 -1.28,0 -2.32,-0.26 -3.12,-0.78 -0.8,-0.52 -1.41,-1.27 -1.83,-2.26 -0.42,-0.99 -0.63,-2.05 -0.63,-3.18 0,-1.23 0.24,-2.31 0.71,-3.23 0.47,-0.92 1.14,-1.62 2.02,-2.1 0.87,-0.48 1.83,-0.72 2.87,-0.72 1.19,0 2.18,0.3 2.99,0.91 0.81,0.6 1.37,1.45 1.69,2.55l-1.54 0.37c-0.28,-0.87 -0.67,-1.49 -1.2,-1.89 -0.52,-0.4 -1.18,-0.59 -1.98,-0.59 -0.91,0 -1.67,0.22 -2.28,0.65 -0.61,0.44 -1.04,1.03 -1.29,1.76 -0.25,0.73 -0.37,1.49 -0.37,2.28 0,1.01 0.15,1.89 0.44,2.64 0.29,0.75 0.75,1.31 1.37,1.69 0.62,0.37 1.29,0.56 2.02,0.56 0.88,0 1.62,-0.25 2.23,-0.76 0.61,-0.51 1.02,-1.26 1.24,-2.26zm7.66 4.36l0.7 -3.45 -1.37 0 0 -1.2 1.61 0 0.6 -2.94 -2.2 0 0 -1.2 2.45 0 0.7 -3.47 1.22 0 -0.7 3.47 2.55 0 0.7 -3.47 1.22 0 -0.7 3.47 1.4 0 0 1.2 -1.64 0 -0.61 2.94 2.25 0 0 1.2 -2.49 0 -0.7 3.45 -1.22 0 0.7 -3.45 -2.54 0 -0.7 3.45 -1.21 0zm2.16 -4.65l2.54 0 0.61 -2.94 -2.55 0 -0.6 2.94zm7.72 -2.48l0 -1.66 1.66 0 0 1.66 -1.66 0zm0 6.93l0 -1.66 1.66 0 0 1.66 -1.66 0zm9.28 0l-1.45 0 0 -9.28c-0.35,0.33 -0.81,0.67 -1.38,1 -0.57,0.33 -1.08,0.59 -1.54,0.75l0 -1.4c0.82,-0.38 1.53,-0.85 2.14,-1.39 0.61,-0.55 1.04,-1.08 1.3,-1.59l0.94 0 0 11.91zm3.73 -3.1l1.53 -0.13c0.11,0.74 0.38,1.3 0.78,1.68 0.42,0.38 0.91,0.56 1.49,0.56 0.7,0 1.3,-0.27 1.78,-0.79 0.49,-0.53 0.73,-1.23 0.73,-2.1 0,-0.83 -0.23,-1.49 -0.7,-1.97 -0.47,-0.48 -1.08,-0.72 -1.83,-0.72 -0.47,0 -0.89,0.11 -1.27,0.32 -0.38,0.21 -0.67,0.49 -0.89,0.83l-1.37 -0.18 1.15 -6.09 5.9 0 0 1.39 -4.73 0 -0.64 3.18c0.71,-0.5 1.46,-0.74 2.24,-0.74 1.04,0 1.91,0.36 2.62,1.08 0.71,0.72 1.07,1.64 1.07,2.77 0,1.07 -0.32,2 -0.94,2.78 -0.76,0.96 -1.8,1.44 -3.11,1.44 -1.08,0 -1.96,-0.3 -2.64,-0.91 -0.68,-0.6 -1.07,-1.4 -1.17,-2.4zm9.21 -2.74c0,-1.4 0.14,-2.53 0.43,-3.39 0.29,-0.86 0.72,-1.51 1.29,-1.98 0.57,-0.47 1.28,-0.69 2.15,-0.69 0.64,0 1.19,0.13 1.67,0.38 0.48,0.25 0.87,0.62 1.19,1.11 0.31,0.48 0.56,1.07 0.73,1.76 0.18,0.69 0.27,1.62 0.27,2.8 0,1.39 -0.14,2.51 -0.43,3.37 -0.29,0.86 -0.72,1.52 -1.28,1.98 -0.57,0.47 -1.29,0.7 -2.16,0.7 -1.14,0 -2.04,-0.41 -2.69,-1.23 -0.78,-0.99 -1.18,-2.6 -1.18,-4.82zm1.5 0c0,1.94 0.23,3.24 0.69,3.89 0.45,0.65 1.01,0.97 1.68,0.97 0.67,0 1.23,-0.33 1.69,-0.97 0.45,-0.65 0.68,-1.94 0.68,-3.88 0,-1.95 -0.23,-3.25 -0.68,-3.89 -0.46,-0.64 -1.02,-0.96 -1.7,-0.96 -0.67,0 -1.2,0.28 -1.6,0.85 -0.5,0.72 -0.75,2.06 -0.75,4zm12.38 5.85l0 -2.84 -5.14 0 0 -1.34 5.41 -7.68 1.19 0 0 7.68 1.6 0 0 1.34 -1.6 0 0 2.84 -1.46 0zm0 -4.17l0 -5.34 -3.71 5.34 3.71 0zm12.1 -4.78l-1.45 0.11c-0.13,-0.57 -0.31,-0.99 -0.55,-1.25 -0.39,-0.42 -0.88,-0.62 -1.46,-0.62 -0.46,0 -0.87,0.13 -1.22,0.39 -0.46,0.33 -0.82,0.82 -1.09,1.46 -0.26,0.64 -0.4,1.55 -0.41,2.74 0.35,-0.53 0.78,-0.93 1.29,-1.19 0.51,-0.26 1.04,-0.39 1.59,-0.39 0.97,0 1.8,0.36 2.48,1.07 0.68,0.72 1.02,1.64 1.02,2.77 0,0.75 -0.16,1.44 -0.48,2.08 -0.32,0.64 -0.76,1.13 -1.32,1.47 -0.56,0.34 -1.19,0.51 -1.91,0.51 -1.22,0 -2.2,-0.44 -2.97,-1.34 -0.77,-0.89 -1.15,-2.37 -1.15,-4.41 0,-2.29 0.42,-3.96 1.27,-5 0.74,-0.91 1.73,-1.36 2.98,-1.36 0.93,0 1.7,0.26 2.29,0.78 0.6,0.52 0.96,1.25 1.07,2.17zm-5.94 5.11c0,0.5 0.11,0.98 0.32,1.44 0.21,0.46 0.51,0.81 0.89,1.05 0.38,0.24 0.78,0.36 1.21,0.36 0.62,0 1.14,-0.25 1.58,-0.75 0.44,-0.5 0.66,-1.17 0.66,-2.02 0,-0.82 -0.22,-1.47 -0.65,-1.94 -0.44,-0.47 -0.99,-0.71 -1.65,-0.71 -0.66,0 -1.22,0.23 -1.67,0.71 -0.46,0.47 -0.69,1.09 -0.69,1.85zm7.61 0.71l1.46 -0.19c0.17,0.82 0.45,1.42 0.85,1.78 0.4,0.36 0.89,0.55 1.47,0.55 0.69,0 1.27,-0.24 1.74,-0.71 0.47,-0.47 0.71,-1.06 0.71,-1.76 0,-0.67 -0.22,-1.22 -0.65,-1.65 -0.44,-0.43 -0.99,-0.65 -1.67,-0.65 -0.28,0 -0.62,0.06 -1.03,0.16l0.16 -1.28c0.1,0.01 0.17,0.02 0.24,0.02 0.62,0 1.18,-0.16 1.67,-0.48 0.5,-0.32 0.75,-0.82 0.75,-1.5 0,-0.53 -0.18,-0.98 -0.55,-1.32 -0.36,-0.35 -0.83,-0.53 -1.4,-0.53 -0.57,0 -1.04,0.18 -1.41,0.53 -0.38,0.36 -0.62,0.89 -0.73,1.6l-1.45 -0.26c0.18,-0.98 0.58,-1.73 1.21,-2.27 0.63,-0.53 1.41,-0.8 2.35,-0.8 0.65,0 1.24,0.14 1.79,0.42 0.54,0.28 0.96,0.66 1.25,1.14 0.29,0.48 0.43,0.99 0.43,1.53 0,0.51 -0.14,0.98 -0.42,1.4 -0.28,0.42 -0.68,0.75 -1.22,1 0.7,0.16 1.25,0.5 1.63,1 0.39,0.51 0.58,1.15 0.58,1.91 0,1.04 -0.38,1.91 -1.13,2.64 -0.75,0.72 -1.71,1.08 -2.86,1.08 -1.04,0 -1.91,-0.31 -2.59,-0.93 -0.69,-0.62 -1.08,-1.42 -1.18,-2.41zm9.3 -7.17l0 -1.4 7.68 0 0 1.13c-0.75,0.8 -1.5,1.87 -2.25,3.2 -0.74,1.33 -1.31,2.7 -1.72,4.11 -0.29,0.99 -0.48,2.08 -0.56,3.26l-1.5 0c0.02,-0.93 0.2,-2.06 0.55,-3.38 0.35,-1.32 0.85,-2.6 1.51,-3.82 0.66,-1.23 1.35,-2.26 2.09,-3.1l-5.81 0z"/>
   </g>
   <g>
    <polygon class="fil2" points="20.79,417.65 5.37,424.13 3.17,57 165.48,57 172.08,209.39 152.78,187.67 148.45,74.28 22.23,74.28 "/>
    <polygon class="fil3" points="134.8,369.16 135.22,395.22 162.13,394.67 "/>
    <path class="fil3" d="M201.26 385.59l-36.35 -67.09 1.25 63.96 -31.36 -25.56 -2.82 -82.6c5.31,-3.43 10.5,-6.97 15.74,-10.46l65.4 121.75 -11.87 0 0 0z"/>
    <polygon class="fil3" points="223.48,385.59 285.54,259.75 292.49,259.75 290.11,385.59 279.06,385.59 278.59,312.16 238.99,385.59 "/>
    <polygon class="fil3" points="299.67,233 310.31,233 312.17,387.93 299.67,387.93 "/>
    <polygon class="fil4" points="444.93,209.52 447.82,56.06 601.44,56.06 601.44,424.94 583.61,418.86 584.65,72.12 464.71,72.12 460.94,199.62 "/>
    <path class="fil3 str0" d="M127.29 391.57c0,0 -64.4,-41.95 -106.72,-46.18 0,0 121.61,-20.52 16.8,-119.86 0,0 127.18,66.94 103.66,-59.39 0,0 116.62,172.77 56.53,-28.07 0,0 91.87,107.97 109.52,-106.9 0,0 21.2,225.67 115.42,99.33 0,0 -75.28,172.93 43.02,56.69 0,0 5.27,97.63 103.01,37.25 0,0 -106.57,127.95 31.8,92.86 -86.04,60.45 -121.22,70.7 -126.34,74.26l0 -20.79 92.83 -41.6c0,0 -88.32,12.42 -18.84,-85.29 0,0 -76.56,29.43 -88.03,-44.27 0,0 -94.51,96.35 -58.31,-35.63 0,0 -65.06,57.78 -94.51,-86.38 0,0 -19.43,143.07 -95.96,80.98 0,0 48.86,162.5 -61.84,29.69 0,0 -1.17,89.97 -87.13,54 0,0 55.93,82.6 -11.19,99.87l76.3 28.62 0 20.8 0 0z"/>
    <polygon class="fil5" points="321.64,233 321.64,387.93 345.13,387.93 345.13,328.57 363.76,328.57 363.76,387.69 386.97,387.69 386.97,246.77 363.97,240.57 363.97,295.09 342.7,295.09 342.7,236.99 "/>
    <rect class="fil6" x="321.64" y="303.96" width="65.32" height="15.32"/>
    <path class="fil6" d="M464.71 392.63l-2.16 -0.23 -6.75 -0.71 -9.72 -1.02 0 -3.45 -1.2 -50.91 -1.39 -58.97 2.64 2.01c6.11,4.67 12.17,9.31 18.19,13.57l0.26 0.19 0.13 99.51 0 0z"/>
    <path class="fil7" d="M151.58 257.17l0 0c-0.09,-0.01 -0.19,-0.02 -0.29,-0.02 -0.47,0 -0.92,0.11 -1.33,0.34 -0.6,0.21 -1.16,0.56 -1.62,1 -0.59,0.49 -1.09,1.08 -1.49,1.73 -0.5,0.65 -0.9,1.37 -1.17,2.14l-0.58 1.41c-0.1,0.42 -0.15,0.84 -0.15,1.27 0,0.43 0.05,0.86 0.15,1.27l0.44 0.96c0.37,0.55 0.96,0.9 1.62,0.97l0 0c0.09,0.01 0.19,0.01 0.29,0.01 0.47,0 0.92,-0.11 1.33,-0.34 0.6,-0.21 1.16,-0.56 1.62,-1 0.59,-0.49 1.09,-1.08 1.49,-1.73 0.5,-0.65 0.9,-1.37 1.17,-2.14l0.41 -1.44c0.1,-0.42 0.15,-0.85 0.15,-1.27 0,-0.43 -0.05,-0.86 -0.15,-1.27l-0.44 -0.96c-0.37,-0.55 -0.96,-0.9 -1.62,-0.97l0.18 0.03 0 0z"/>
    <path class="fil7" d="M151.58 257.17l0 0c-0.09,-0.01 -0.19,-0.02 -0.29,-0.02 -0.47,0 -0.92,0.11 -1.33,0.34 -0.6,0.21 -1.16,0.56 -1.62,1 -0.59,0.49 -1.09,1.08 -1.49,1.73 -0.5,0.65 -0.9,1.37 -1.17,2.14l-0.58 1.41c-0.1,0.42 -0.15,0.84 -0.15,1.27 0,0.43 0.05,0.86 0.15,1.27l0.44 0.96c0.37,0.55 0.96,0.9 1.62,0.97l0 0c0.09,0.01 0.19,0.01 0.29,0.01 0.47,0 0.92,-0.11 1.33,-0.34 0.6,-0.21 1.16,-0.56 1.62,-1 0.59,-0.49 1.09,-1.08 1.49,-1.73 0.5,-0.65 0.9,-1.37 1.17,-2.14l0.41 -1.44c0.1,-0.42 0.15,-0.85 0.15,-1.27 0,-0.43 -0.05,-0.86 -0.15,-1.27l-0.44 -0.96c-0.37,-0.55 -0.96,-0.9 -1.62,-0.97l0.18 0.03 0 0z"/>
    <path class="fil7" d="M147.64 258.92c-5.25,3.5 -10.46,7.03 -15.74,10.46 -2.57,1.57 -4.19,4.34 -4.29,7.35 0.1,2.43 2.17,4.07 4.45,2.57 5.3,-3.41 10.51,-6.97 15.74,-10.46 2.6,-1.59 4.21,-4.39 4.29,-7.43 -0.1,-2.4 -2.17,-4.1 -4.46,-2.58l0 0.08z"/>
    <path class="fil3" d="M216.77 349.72l-52.68 -90.78c-0.56,0.61 -1.21,1.15 -1.94,1.6 -1.88,1.26 -3.75,2.51 -5.67,3.67l61.9 114.12 69.02 -145.33 -12.05 0 -58.58 116.71 0 0z"/>
    <path class="fil3" d="M399.92 255.3l0 132.56 19.58 0.99 -0.15 -61.9 25.96 63.36 0.76 0.1 0 -3.19 -1.2 -50.9 -0 -0.17 -17.7 -66.76c-8.52,-3.83 -19.53,-9.3 -27.26,-14.08l0 0z"/>
    <path class="fil8" d="M3.63 435.52c204.67,-58.91 403.11,-46.82 597.14,-0.96l-6.3 21.82c-192.81,-47.93 -402.75,-55.46 -584.08,-1.18l-6.77 -19.69z"/>
   </g>
  </g>
 </g>
</svg>
