<?xml version="1.0" encoding="UTF-8"?>
<!DOCTYPE svg PUBLIC "-//W3C//DTD SVG 1.1//EN" "http://www.w3.org/Graphics/SVG/1.1/DTD/svg11.dtd">
<!-- Creator: CorelDRAW 2019 (64-Bit) -->
<svg xmlns="http://www.w3.org/2000/svg" xml:space="preserve" width="0.779563in" height="0.716209in" version="1.1" style="shape-rendering:geometricPrecision; text-rendering:geometricPrecision; image-rendering:optimizeQuality; fill-rule:evenodd; clip-rule:evenodd"
viewBox="0 0 172.75 158.71"
 xmlns:xlink="http://www.w3.org/1999/xlink"
 xmlns:xodm="http://www.corel.com/coreldraw/odm/2003">
 <defs>
  <style type="text/css">
   <![CDATA[
    .str0 {stroke:white;stroke-width:1.54;stroke-miterlimit:22.9256}
    .fil1 {fill:white}
    .fil0 {fill:white;fill-rule:nonzero}
   ]]>
  </style>
 </defs>
 <g id="Layer_x0020_1">
  <metadata id="CorelCorpID_0Corel-Layer"/>
  <g id="_2913079547632">
   <g>
    <path class="fil0" d="M1.67 141.21l0 -8.39 1.58 0 3.95 5.07 3.87 -5.07 1.56 0 0 8.39 -1.81 0 0 -5.18c0,-0.1 0.01,-0.23 0.02,-0.38 0.01,-0.15 0.03,-0.33 0.05,-0.51 -0.11,0.22 -0.2,0.4 -0.28,0.53 -0.08,0.14 -0.15,0.26 -0.21,0.35l-3.15 4.19 -0.39 0 -3.16 -4.21c-0.12,-0.16 -0.22,-0.31 -0.3,-0.45 -0.08,-0.14 -0.15,-0.28 -0.2,-0.41 0.02,0.17 0.03,0.33 0.04,0.47 0.01,0.14 0.01,0.28 0.01,0.41l0 5.18 -1.58 0zm14.9 -6.41c0,-0.76 0.14,-1.28 0.43,-1.57 0.29,-0.28 0.84,-0.42 1.65,-0.42l6.17 0c0.82,0 1.37,0.14 1.65,0.42 0.29,0.28 0.43,0.8 0.43,1.57l0 4.42c0,0.77 -0.14,1.29 -0.43,1.57 -0.29,0.28 -0.84,0.42 -1.65,0.42l-6.17 0c-0.82,0 -1.37,-0.14 -1.65,-0.42 -0.29,-0.28 -0.43,-0.8 -0.43,-1.57l0 -4.42zm1.95 4.83l6.44 0 0 -5.31 -6.44 0 0 5.31zm12.48 1.58l0 -8.39 1.58 0 3.95 5.07 3.87 -5.07 1.56 0 0 8.39 -1.81 0 0 -5.18c0,-0.1 0.01,-0.23 0.02,-0.38 0.01,-0.15 0.03,-0.33 0.05,-0.51 -0.11,0.22 -0.2,0.4 -0.28,0.53 -0.08,0.14 -0.15,0.26 -0.21,0.35l-3.15 4.19 -0.39 0 -3.16 -4.21c-0.12,-0.16 -0.22,-0.31 -0.3,-0.45 -0.08,-0.14 -0.15,-0.28 -0.2,-0.41 0.02,0.17 0.03,0.33 0.04,0.47 0.01,0.14 0.01,0.28 0.01,0.41l0 5.18 -1.58 0zm15.07 0l0 -8.39 1.95 0 0 8.39 -1.95 0zm13.51 -6.92l-5.49 0 0 1.8 5.23 0c0.82,0 1.38,0.14 1.66,0.42 0.29,0.28 0.43,0.8 0.43,1.57l0 1.15c0,0.76 -0.14,1.28 -0.43,1.56 -0.29,0.28 -0.84,0.42 -1.66,0.42l-5.18 0c-0.82,0 -1.38,-0.14 -1.66,-0.42 -0.29,-0.28 -0.43,-0.8 -0.43,-1.56l0 -0.23 1.72 -0.36 0 0.99 5.93 0 0 -1.91 -5.23 0c-0.82,0 -1.37,-0.14 -1.65,-0.42 -0.28,-0.28 -0.43,-0.8 -0.43,-1.57l0 -0.93c0,-0.76 0.14,-1.28 0.43,-1.57 0.29,-0.28 0.84,-0.42 1.65,-0.42l4.76 0c0.79,0 1.33,0.14 1.63,0.4 0.3,0.27 0.45,0.75 0.45,1.44l0 0.17 -1.72 0.41 0 -0.95zm5.71 0.52c0,-0.76 0.14,-1.28 0.43,-1.57 0.29,-0.28 0.84,-0.42 1.65,-0.42l6.17 0c0.82,0 1.37,0.14 1.65,0.42 0.28,0.28 0.43,0.8 0.43,1.57l0 4.42c0,0.77 -0.14,1.29 -0.43,1.57 -0.29,0.28 -0.84,0.42 -1.65,0.42l-6.17 0c-0.82,0 -1.37,-0.14 -1.65,-0.42 -0.28,-0.28 -0.43,-0.8 -0.43,-1.57l0 -4.42zm1.95 4.83l6.44 0 0 -5.31 -6.44 0 0 5.31zm12.5 1.58l0 -8.39 1.95 0 0 6.81 6.3 0 0 1.58 -8.25 0zm12.98 -3.35l3.67 0 -1.81 -3.41 -1.86 3.41zm-3.76 3.35l4.75 -8.39 1.88 0 4.81 8.39 -2.19 0 -1.01 -1.83 -5.32 0 -0.98 1.83 -1.95 0zm19.83 0l0 -6.88 1.69 0 0 2.61 5.23 0 0 -2.61 1.68 0 0 6.88 -1.68 0 0 -2.9 -5.23 0 0 2.9 -1.69 0zm13.18 -1.32l5.54 0 0 -4.3 -5.54 0 0 4.3zm-1.68 -3.94c0,-0.63 0.12,-1.05 0.37,-1.28 0.24,-0.23 0.72,-0.34 1.42,-0.34l5.32 0c0.71,0 1.18,0.11 1.43,0.34 0.24,0.23 0.36,0.65 0.36,1.28l0 3.63c0,0.63 -0.12,1.06 -0.37,1.28 -0.25,0.23 -0.72,0.34 -1.42,0.34l-5.32 0c-0.7,0 -1.18,-0.11 -1.42,-0.34 -0.24,-0.23 -0.37,-0.66 -0.37,-1.28l0 -3.63zm15.89 -0.39l0 5.65 -1.68 0 0 -5.65 -3.32 0 0 -1.23 8.32 0 0 1.23 -3.33 0zm5.49 5.65l0 -6.88 7.38 0 0 1.21 -5.69 0 0 1.5 3.31 0 0 1.18 -3.31 0 0 1.69 5.77 0 0 1.29 -7.46 0zm9.88 0l0 -6.88 1.69 0 0 5.59 5.39 0 0 1.29 -7.08 0zm15.33 -5.65l-4.74 0 0 1.45 4.48 0c0.7,0 1.18,0.11 1.42,0.34 0.24,0.23 0.37,0.65 0.37,1.28l0 0.95c0,0.63 -0.12,1.06 -0.37,1.29 -0.25,0.23 -0.72,0.34 -1.41,0.34l-4.46 0c-0.71,0 -1.19,-0.11 -1.44,-0.34 -0.25,-0.23 -0.38,-0.66 -0.38,-1.29l0 -0.19 1.49 -0.28 0 0.81 5.06 0 0 -1.57 -4.46 0c-0.7,0 -1.18,-0.11 -1.43,-0.34 -0.25,-0.23 -0.37,-0.66 -0.37,-1.29l0 -0.77c0,-0.62 0.12,-1.04 0.37,-1.27 0.25,-0.23 0.73,-0.34 1.43,-0.34l4.08 0c0.69,0 1.17,0.11 1.43,0.33 0.26,0.22 0.38,0.61 0.38,1.16l0 0.17 -1.45 0.31 0 -0.74z"/>
    <path class="fil0" d="M39.09 151.2l0 -4.9 0.78 0 3.45 2.89c0.12,0.1 0.22,0.19 0.31,0.27 0.09,0.09 0.17,0.17 0.25,0.26 -0.02,-0.28 -0.03,-0.47 -0.04,-0.58 -0.01,-0.11 -0.01,-0.2 -0.01,-0.26l0 -2.57 1.02 0 0 4.9 -0.78 0 -3.6 -3.03c-0.09,-0.08 -0.16,-0.15 -0.23,-0.21 -0.06,-0.06 -0.12,-0.12 -0.18,-0.19 0.01,0.15 0.03,0.29 0.03,0.43 0.01,0.13 0.01,0.25 0.01,0.35l0 2.65 -1.02 0zm8.26 0l0 -4.9 1.14 0 0 4.9 -1.14 0zm8.24 -4.02l-3.56 0 0 3.1 3.56 0 0 -1.09 -1.86 0 0 -0.83 2.97 0 0 1.69c0,0.45 -0.08,0.75 -0.25,0.92 -0.17,0.16 -0.49,0.24 -0.96,0.24l-3.38 0c-0.48,0 -0.8,-0.08 -0.96,-0.24 -0.17,-0.16 -0.25,-0.47 -0.25,-0.92l0 -2.58c0,-0.45 0.08,-0.75 0.25,-0.91 0.17,-0.16 0.49,-0.25 0.96,-0.25l3.38 0c0.47,0 0.79,0.08 0.96,0.24 0.17,0.16 0.25,0.45 0.25,0.87l0 0.11 -1.11 0.2 0 -0.55zm3.52 4.02l0 -4.9 5.02 0 0 0.83 -3.88 0 0 1.09 2.26 0 0 0.83 -2.26 0 0 1.21 3.92 0 0 0.92 -5.06 0zm10.85 -4.05l-2.56 0 0 1.36 2.56 0c0.2,0 0.33,-0.03 0.4,-0.09 0.07,-0.06 0.11,-0.16 0.11,-0.3l0 -0.59c0,-0.14 -0.04,-0.24 -0.11,-0.3 -0.07,-0.06 -0.21,-0.09 -0.4,-0.09zm-3.69 4.05l0 -4.9 4.19 0c0.39,0 0.67,0.07 0.85,0.22 0.17,0.15 0.26,0.39 0.26,0.72l0 1.15c0,0.33 -0.09,0.57 -0.26,0.72 -0.18,0.15 -0.46,0.23 -0.85,0.23l-0.64 0 2.26 1.85 -1.64 0 -1.97 -1.85 -1.08 0 0 1.85 -1.12 0zm7.61 0l0 -4.9 1.14 0 0 4.9 -1.14 0zm4.9 -1.96l2.14 0 -1.06 -1.99 -1.09 1.99zm-2.19 1.96l2.77 -4.9 1.1 0 2.81 4.9 -1.28 0 -0.59 -1.07 -3.11 0 -0.57 1.07 -1.14 0zm11.93 0l0 -4.9 1.14 0 0 3.98 3.67 0 0 0.92 -4.82 0zm6.48 0l0 -4.9 1.14 0 0 4.9 -1.14 0zm3.63 0l0 -4.9 0.92 0 2.31 2.96 2.26 -2.96 0.91 0 0 4.9 -1.06 0 0 -3.03c0,-0.06 0,-0.13 0.01,-0.22 0.01,-0.09 0.02,-0.19 0.03,-0.3 -0.06,0.13 -0.12,0.23 -0.16,0.31 -0.05,0.08 -0.09,0.15 -0.13,0.2l-1.84 2.45 -0.23 0 -1.84 -2.46c-0.07,-0.09 -0.13,-0.18 -0.17,-0.26 -0.05,-0.08 -0.09,-0.16 -0.12,-0.24 0.01,0.1 0.02,0.19 0.02,0.28 0.01,0.08 0.01,0.16 0.01,0.24l0 3.03 -0.92 0zm8.8 0l0 -4.9 1.14 0 0 4.9 -1.14 0zm5.92 -4.02l0 4.02 -1.14 0 0 -4.02 -2.25 0 0 -0.88 5.65 0 0 0.88 -2.26 0zm3.65 4.02l0 -4.9 5.02 0 0 0.83 -3.88 0 0 1.09 2.26 0 0 0.83 -2.26 0 0 1.21 3.92 0 0 0.92 -5.06 0zm8.31 -0.92l1.47 0c0.78,0 1.34,-0.12 1.67,-0.37 0.33,-0.25 0.49,-0.65 0.49,-1.21 0,-0.5 -0.14,-0.88 -0.41,-1.14 -0.27,-0.26 -0.67,-0.39 -1.2,-0.39l-2.02 0 0 3.1zm-1.14 0.92l0 -4.9 3.15 0c0.9,0 1.59,0.21 2.07,0.63 0.48,0.42 0.72,1.02 0.72,1.79 0,0.46 -0.09,0.87 -0.28,1.24 -0.19,0.37 -0.45,0.66 -0.8,0.87 -0.21,0.13 -0.48,0.23 -0.79,0.29 -0.32,0.06 -0.72,0.09 -1.22,0.09l-2.86 0z"/>
    <path class="fil0" d="M88.4 158.65l0 -3.34 1.48 0c0.3,0 0.52,0.03 0.68,0.09 0.15,0.06 0.28,0.16 0.37,0.32 0.09,0.15 0.14,0.32 0.14,0.5 0,0.24 -0.08,0.44 -0.23,0.6 -0.15,0.16 -0.39,0.27 -0.71,0.31 0.12,0.06 0.21,0.11 0.27,0.17 0.13,0.12 0.25,0.27 0.37,0.44l0.58 0.91 -0.56 0 -0.44 -0.69c-0.13,-0.2 -0.23,-0.35 -0.32,-0.46 -0.08,-0.11 -0.16,-0.18 -0.22,-0.22 -0.07,-0.04 -0.13,-0.07 -0.2,-0.09 -0.05,-0.01 -0.13,-0.02 -0.25,-0.02l-0.51 0 0 1.48 -0.44 0zm0.44 -1.86l0.95 0c0.2,0 0.36,-0.02 0.47,-0.06 0.11,-0.04 0.2,-0.11 0.26,-0.2 0.06,-0.09 0.09,-0.19 0.09,-0.3 0,-0.16 -0.06,-0.29 -0.17,-0.39 -0.11,-0.1 -0.3,-0.15 -0.54,-0.15l-1.06 0 0 1.1zm5.3 0.69l0.44 0.11c-0.09,0.36 -0.26,0.64 -0.5,0.83 -0.24,0.19 -0.53,0.28 -0.88,0.28 -0.36,0 -0.65,-0.07 -0.88,-0.22 -0.23,-0.15 -0.4,-0.36 -0.51,-0.64 -0.12,-0.28 -0.18,-0.58 -0.18,-0.9 0,-0.35 0.07,-0.65 0.2,-0.91 0.13,-0.26 0.32,-0.46 0.57,-0.59 0.25,-0.13 0.51,-0.2 0.81,-0.2 0.33,0 0.61,0.09 0.84,0.26 0.23,0.17 0.39,0.41 0.48,0.72l-0.43 0.1c-0.08,-0.24 -0.19,-0.42 -0.34,-0.53 -0.15,-0.11 -0.33,-0.17 -0.56,-0.17 -0.26,0 -0.47,0.06 -0.64,0.18 -0.17,0.12 -0.29,0.29 -0.36,0.5 -0.07,0.21 -0.1,0.42 -0.1,0.64 0,0.28 0.04,0.53 0.12,0.74 0.08,0.21 0.21,0.37 0.39,0.47 0.17,0.1 0.36,0.16 0.57,0.16 0.25,0 0.46,-0.07 0.63,-0.21 0.17,-0.14 0.29,-0.36 0.35,-0.64zm2.16 1.23l0.2 -0.97 -0.38 0 0 -0.34 0.45 0 0.17 -0.83 -0.62 0 0 -0.34 0.69 0 0.2 -0.98 0.34 0 -0.2 0.98 0.72 0 0.2 -0.98 0.34 0 -0.2 0.98 0.39 0 0 0.34 -0.46 0 -0.17 0.83 0.63 0 0 0.34 -0.7 0 -0.2 0.97 -0.34 0 0.2 -0.97 -0.71 0 -0.2 0.97 -0.34 0zm0.61 -1.31l0.71 0 0.17 -0.83 -0.72 0 -0.17 0.83zm2.17 -0.7l0 -0.47 0.47 0 0 0.47 -0.47 0zm0 1.95l0 -0.47 0.47 0 0 0.47 -0.47 0zm2.61 0l-0.41 0 0 -2.61c-0.1,0.09 -0.23,0.19 -0.39,0.28 -0.16,0.09 -0.3,0.16 -0.43,0.21l0 -0.4c0.23,-0.11 0.43,-0.24 0.6,-0.39 0.17,-0.15 0.29,-0.3 0.36,-0.45l0.26 0 0 3.35zm1.05 -0.87l0.43 -0.04c0.03,0.21 0.11,0.37 0.22,0.47 0.12,0.11 0.26,0.16 0.42,0.16 0.2,0 0.36,-0.08 0.5,-0.22 0.14,-0.15 0.21,-0.35 0.21,-0.59 0,-0.23 -0.06,-0.42 -0.2,-0.55 -0.13,-0.14 -0.3,-0.2 -0.52,-0.2 -0.13,0 -0.25,0.03 -0.36,0.09 -0.11,0.06 -0.19,0.14 -0.25,0.23l-0.38 -0.05 0.32 -1.71 1.66 0 0 0.39 -1.33 0 -0.18 0.9c0.2,-0.14 0.41,-0.21 0.63,-0.21 0.29,0 0.54,0.1 0.74,0.3 0.2,0.2 0.3,0.46 0.3,0.78 0,0.3 -0.09,0.56 -0.26,0.78 -0.21,0.27 -0.51,0.4 -0.88,0.4 -0.3,0 -0.55,-0.08 -0.74,-0.25 -0.19,-0.17 -0.3,-0.4 -0.33,-0.68zm2.59 -0.77c0,-0.4 0.04,-0.71 0.12,-0.95 0.08,-0.24 0.2,-0.43 0.36,-0.56 0.16,-0.13 0.36,-0.2 0.6,-0.2 0.18,0 0.34,0.04 0.47,0.11 0.14,0.07 0.25,0.18 0.34,0.31 0.09,0.14 0.16,0.3 0.21,0.5 0.05,0.2 0.08,0.46 0.08,0.79 0,0.39 -0.04,0.71 -0.12,0.95 -0.08,0.24 -0.2,0.43 -0.36,0.56 -0.16,0.13 -0.36,0.2 -0.61,0.2 -0.32,0 -0.57,-0.11 -0.76,-0.35 -0.22,-0.28 -0.33,-0.73 -0.33,-1.36zm0.42 0c0,0.55 0.06,0.91 0.19,1.09 0.13,0.18 0.29,0.27 0.47,0.27 0.19,0 0.35,-0.09 0.47,-0.27 0.13,-0.18 0.19,-0.55 0.19,-1.09 0,-0.55 -0.06,-0.91 -0.19,-1.09 -0.13,-0.18 -0.29,-0.27 -0.48,-0.27 -0.19,0 -0.34,0.08 -0.45,0.24 -0.14,0.2 -0.21,0.58 -0.21,1.13zm3.48 1.64l0 -0.8 -1.45 0 0 -0.38 1.52 -2.16 0.34 0 0 2.16 0.45 0 0 0.38 -0.45 0 0 0.8 -0.41 0zm0 -1.17l0 -1.5 -1.04 1.5 1.04 0zm3.4 -1.34l-0.41 0.03c-0.04,-0.16 -0.09,-0.28 -0.15,-0.35 -0.11,-0.12 -0.25,-0.18 -0.41,-0.18 -0.13,0 -0.24,0.04 -0.34,0.11 -0.13,0.09 -0.23,0.23 -0.31,0.41 -0.07,0.18 -0.11,0.44 -0.12,0.77 0.1,-0.15 0.22,-0.26 0.36,-0.33 0.14,-0.07 0.29,-0.11 0.45,-0.11 0.27,0 0.51,0.1 0.7,0.3 0.19,0.2 0.29,0.46 0.29,0.78 0,0.21 -0.05,0.4 -0.14,0.58 -0.09,0.18 -0.21,0.32 -0.37,0.41 -0.16,0.1 -0.34,0.14 -0.54,0.14 -0.34,0 -0.62,-0.12 -0.83,-0.38 -0.22,-0.25 -0.32,-0.67 -0.32,-1.24 0,-0.64 0.12,-1.11 0.36,-1.41 0.21,-0.25 0.49,-0.38 0.84,-0.38 0.26,0 0.48,0.07 0.64,0.22 0.17,0.15 0.27,0.35 0.3,0.61zm-1.67 1.44c0,0.14 0.03,0.28 0.09,0.41 0.06,0.13 0.14,0.23 0.25,0.29 0.11,0.07 0.22,0.1 0.34,0.1 0.17,0 0.32,-0.07 0.45,-0.21 0.12,-0.14 0.19,-0.33 0.19,-0.57 0,-0.23 -0.06,-0.41 -0.18,-0.55 -0.12,-0.13 -0.28,-0.2 -0.46,-0.2 -0.19,0 -0.34,0.07 -0.47,0.2 -0.13,0.13 -0.19,0.31 -0.19,0.52zm2.14 0.2l0.41 -0.05c0.05,0.23 0.13,0.4 0.24,0.5 0.11,0.1 0.25,0.15 0.41,0.15 0.19,0 0.36,-0.07 0.49,-0.2 0.13,-0.13 0.2,-0.3 0.2,-0.5 0,-0.19 -0.06,-0.34 -0.18,-0.46 -0.12,-0.12 -0.28,-0.18 -0.47,-0.18 -0.08,0 -0.17,0.02 -0.29,0.05l0.05 -0.36c0.03,0 0.05,0 0.07,0 0.17,0 0.33,-0.05 0.47,-0.14 0.14,-0.09 0.21,-0.23 0.21,-0.42 0,-0.15 -0.05,-0.27 -0.15,-0.37 -0.1,-0.1 -0.23,-0.15 -0.39,-0.15 -0.16,0 -0.29,0.05 -0.4,0.15 -0.11,0.1 -0.17,0.25 -0.21,0.45l-0.41 -0.07c0.05,-0.27 0.16,-0.49 0.34,-0.64 0.18,-0.15 0.4,-0.23 0.66,-0.23 0.18,0 0.35,0.04 0.5,0.12 0.15,0.08 0.27,0.18 0.35,0.32 0.08,0.14 0.12,0.28 0.12,0.43 0,0.14 -0.04,0.27 -0.12,0.39 -0.08,0.12 -0.19,0.21 -0.34,0.28 0.2,0.04 0.35,0.14 0.46,0.28 0.11,0.14 0.16,0.32 0.16,0.54 0,0.29 -0.11,0.54 -0.32,0.74 -0.21,0.2 -0.48,0.3 -0.81,0.3 -0.29,0 -0.54,-0.09 -0.73,-0.26 -0.19,-0.17 -0.3,-0.4 -0.33,-0.68zm2.62 -2.02l0 -0.39 2.16 0 0 0.32c-0.21,0.23 -0.42,0.53 -0.63,0.9 -0.21,0.37 -0.37,0.76 -0.48,1.16 -0.08,0.28 -0.13,0.58 -0.16,0.92l-0.42 0c0,-0.26 0.06,-0.58 0.15,-0.95 0.1,-0.37 0.24,-0.73 0.42,-1.07 0.18,-0.35 0.38,-0.64 0.59,-0.87l-1.63 0z"/>
   </g>
   <polygon class="fil1" points="5.85,117.49 1.51,119.32 0.89,16.03 46.55,16.03 48.41,58.91 42.98,52.8 41.76,20.9 6.25,20.9 "/>
   <polygon class="fil1" points="37.92,103.85 38.04,111.18 45.61,111.03 "/>
   <polygon class="fil1" points="62.87,108.48 80.33,73.07 82.28,73.07 81.61,108.48 78.51,108.48 78.38,87.82 67.23,108.48 "/>
   <polygon class="fil1" points="84.3,65.55 87.3,65.55 87.82,109.13 84.3,109.13 "/>
   <polygon class="fil1" points="125.17,58.94 125.98,15.77 169.2,15.77 169.2,119.55 164.18,117.84 164.48,20.29 130.73,20.29 129.67,56.16 "/>
   <path class="fil1 str0" d="M35.81 110.16c0,0 -18.12,-11.8 -30.02,-12.99 0,0 34.21,-5.77 4.73,-33.72 0,0 35.78,18.83 29.16,-16.71 0,0 32.81,48.61 15.9,-7.9 0,0 25.84,30.37 30.81,-30.07 0,0 5.96,63.49 32.47,27.95 0,0 -21.18,48.65 12.1,15.95 0,0 1.48,27.47 28.98,10.48 0,0 -29.98,36 8.94,26.12 -24.2,17.01 -34.1,19.89 -35.54,20.89l0 -5.85 26.11 -11.7c0,0 -24.85,3.49 -5.3,-23.99 0,0 -21.54,8.28 -24.77,-12.45 0,0 -26.59,27.11 -16.4,-10.02 0,0 -18.3,16.25 -26.59,-24.3 0,0 -5.47,40.25 -27,22.78 0,0 13.75,45.72 -17.4,8.35 0,0 -0.33,25.31 -24.51,15.19 0,0 15.73,23.24 -3.15,28.1l21.46 8.05 0 5.85 0 0z"/>
   <polygon class="fil1" points="90.49,65.55 90.49,109.13 97.09,109.13 97.09,92.43 102.33,92.43 102.33,109.07 108.86,109.07 108.86,69.42 102.39,67.68 102.39,83.01 96.41,83.01 96.41,66.67 "/>
   <rect class="fil1" x="90.49" y="85.51" width="18.38" height="4.31"/>
   <path class="fil1" d="M130.73 110.46l-0.61 -0.06 -1.9 -0.2 -2.73 -0.29 0 -0.97 -0.34 -14.32 -0.39 -16.59 0.74 0.56c1.72,1.31 3.42,2.62 5.12,3.82l0.07 0.05 0.04 28 0 0z"/>
   <path class="fil1" d="M60.98 98.38l-14.82 -25.54c-0.16,0.17 -0.34,0.32 -0.54,0.45 -0.53,0.35 -1.06,0.71 -1.59,1.03l17.41 32.11 19.42 -40.89 -3.39 0 -16.48 32.83 0 0z"/>
   <path class="fil1" d="M112.51 71.82l0 37.29 5.51 0.28 -0.04 -17.42 7.3 17.83 0.21 0.03 0 -0.9 -0.34 -14.32 -0 -0.05 -4.98 -18.78c-2.4,-1.08 -5.49,-2.62 -7.67,-3.96l0 0z"/>
   <path class="fil1" d="M1.02 122.52c57.58,-16.57 113.4,-13.17 167.99,-0.27l-1.77 6.14c-54.24,-13.48 -113.3,-15.6 -164.31,-0.33l-1.9 -5.54z"/>
   <path class="fil1" d="M46.74 107.6l-0.35 -18 10.22 18.87 3.34 0 -17.85 -33.23c-0.03,0.02 -0.07,0.04 -0.11,0.06 -0.13,0.12 -0.27,0.23 -0.42,0.32 -1.46,0.98 -2.92,1.97 -4.4,2.93l0.75 21.85 8.82 7.19z"/>
  </g>
 </g>
</svg>
