<svg id="Capa_1" enable-background="new 0 0 512 512" height="512" viewBox="0 0 512 512" width="512" xmlns="http://www.w3.org/2000/svg"><g><path d="m479.5 78.5h-300.548c-3.274-11.528-13.889-20-26.452-20h-85c-12.563 0-23.178 8.472-26.452 20h-8.548c-17.92 0-32.5 14.579-32.5 32.5v35.063c0 4.143 3.358 7.5 7.5 7.5s7.5-3.357 7.5-7.5v-35.063c0-9.649 7.851-17.5 17.5-17.5h7.5v325h-7.5c-9.649 0-17.5-7.851-17.5-17.5v-219.649c0-4.143-3.358-7.5-7.5-7.5s-7.5 3.357-7.5 7.5v219.649c0 17.921 14.58 32.5 32.5 32.5h8.548c3.274 11.528 13.889 20 26.452 20h85c12.563 0 23.178-8.472 26.452-20h300.548c17.921 0 32.5-14.579 32.5-32.5v-290c0-17.921-14.579-32.5-32.5-32.5zm17.5 322.5c0 9.649-7.851 17.5-17.5 17.5h-52.5v-146.947c0-4.143-3.357-7.5-7.5-7.5s-7.5 3.357-7.5 7.5v146.947h-232v-27.074c0-4.143-3.358-7.5-7.5-7.5s-7.5 3.357-7.5 7.5v34.574c0 6.893-5.607 12.5-12.5 12.5h-85c-6.231.113-12.697-5.874-12.5-12.955v-339.545c0-6.893 5.607-12.5 12.5-12.5h85c6.893 0 12.5 5.607 12.5 12.5v270.191c0 4.143 3.358 7.5 7.5 7.5s7.5-3.357 7.5-7.5v-262.691h232v143.074c0 4.143 3.357 7.5 7.5 7.5s7.5-3.357 7.5-7.5v-143.074h52.5c9.649 0 17.5 7.851 17.5 17.5z"/><path d="m369.5 113.851h-34.287c-4.143 0-7.5 3.357-7.5 7.5s3.357 7.5 7.5 7.5h34.287c1.379 0 2.5 1.121 2.5 2.5v39.511h-150v-39.511c0-1.379 1.122-2.5 2.5-2.5h75.479c4.143 0 7.5-3.357 7.5-7.5s-3.357-7.5-7.5-7.5h-75.479c-9.649 0-17.5 7.851-17.5 17.5v67.011c0 9.649 7.851 17.5 17.5 17.5h145c9.649 0 17.5-7.851 17.5-17.5v-67.011c0-9.65-7.851-17.5-17.5-17.5zm0 87.01h-145c-1.378 0-2.5-1.121-2.5-2.5v-12.5h150v12.5c0 1.379-1.121 2.5-2.5 2.5z"/><path d="m246.5 230.861h-29c-5.79 0-10.5 4.71-10.5 10.5v24c0 5.79 4.71 10.5 10.5 10.5h29c5.79 0 10.5-4.71 10.5-10.5v-24c0-5.79-4.71-10.5-10.5-10.5zm-4.5 30h-20v-15h20z"/><path d="m246.5 290.861h-29c-5.79 0-10.5 4.71-10.5 10.5v24c0 5.79 4.71 10.5 10.5 10.5h29c5.79 0 10.5-4.71 10.5-10.5v-24c0-5.79-4.71-10.5-10.5-10.5zm-4.5 30h-20v-15h20z"/><path d="m246.5 350.861h-29c-5.79 0-10.5 4.71-10.5 10.5v24c0 5.79 4.71 10.5 10.5 10.5h29c5.79 0 10.5-4.71 10.5-10.5v-24c0-5.79-4.71-10.5-10.5-10.5zm-4.5 30h-20v-15h20z"/><path d="m311.5 230.861h-29c-5.79 0-10.5 4.71-10.5 10.5v24c0 5.79 4.71 10.5 10.5 10.5h29c5.79 0 10.5-4.71 10.5-10.5v-24c0-5.79-4.71-10.5-10.5-10.5zm-4.5 30h-20v-15h20z"/><path d="m311.5 290.861h-29c-5.79 0-10.5 4.71-10.5 10.5v24c0 5.79 4.71 10.5 10.5 10.5h29c5.79 0 10.5-4.71 10.5-10.5v-24c0-5.79-4.71-10.5-10.5-10.5zm-4.5 30h-20v-15h20z"/><path d="m311.5 350.861h-29c-5.79 0-10.5 4.71-10.5 10.5v24c0 5.79 4.71 10.5 10.5 10.5h29c5.79 0 10.5-4.71 10.5-10.5v-24c0-5.79-4.71-10.5-10.5-10.5zm-4.5 30h-20v-15h20z"/><path d="m376.5 230.861h-29c-5.79 0-10.5 4.71-10.5 10.5v24c0 5.79 4.71 10.5 10.5 10.5h29c5.79 0 10.5-4.71 10.5-10.5v-24c0-5.79-4.71-10.5-10.5-10.5zm-4.5 30h-20v-15h20z"/><path d="m376.5 290.861h-29c-5.79 0-10.5 4.71-10.5 10.5v24c0 5.79 4.71 10.5 10.5 10.5h29c5.79 0 10.5-4.71 10.5-10.5v-24c0-5.79-4.71-10.5-10.5-10.5zm-4.5 30h-20v-15h20z"/><path d="m376.5 350.861h-29c-5.79 0-10.5 4.71-10.5 10.5v24c0 5.79 4.71 10.5 10.5 10.5h29c5.79 0 10.5-4.71 10.5-10.5v-24c0-5.79-4.71-10.5-10.5-10.5zm-4.5 30h-20v-15h20z"/><path d="m469.691 148.5h-15c-4.143 0-7.5 3.357-7.5 7.5s3.357 7.5 7.5 7.5h15c4.143 0 7.5-3.357 7.5-7.5s-3.357-7.5-7.5-7.5z"/><path d="m469.691 198.5h-15c-4.143 0-7.5 3.357-7.5 7.5s3.357 7.5 7.5 7.5h15c4.143 0 7.5-3.357 7.5-7.5s-3.357-7.5-7.5-7.5z"/><path d="m469.691 298.5h-15c-4.143 0-7.5 3.357-7.5 7.5s3.357 7.5 7.5 7.5h15c4.143 0 7.5-3.357 7.5-7.5s-3.357-7.5-7.5-7.5z"/><path d="m469.691 348.5h-15c-4.143 0-7.5 3.357-7.5 7.5s3.357 7.5 7.5 7.5h15c4.143 0 7.5-3.357 7.5-7.5s-3.357-7.5-7.5-7.5z"/><path d="m469.691 248.5h-15c-4.143 0-7.5 3.357-7.5 7.5s3.357 7.5 7.5 7.5h15c4.143 0 7.5-3.357 7.5-7.5s-3.357-7.5-7.5-7.5z"/></g></svg>